# xmcd
#
# Track frame offsets:
#	182
#	22365
#	36165
#	50640
#	67365
#	81315
#	94740
#	111390
#	127815
#	147315
#	161640
#	176040
#	200565
#
# Disc length: 2926 seconds
#
# Revision: 1
# Processed by: cddbd v1.5.2PL0 Copyright (c) Steve Scherf et al.
# Submitted via: audiograbber 1.83.01
#
DISCID=c90b6c0d
DTITLE=Various Artist - talent Search Finalists 1997
DYEAR=1997
DGENRE=
TTITLE0=Anthony Taylor - I'm in Love with You
TTITLE1=Anthony Taylor - Better Man
TTITLE2=Anthony Taylor - Guitars and Cadillacs
TTITLE3=Anthony Taylor - Kaw-Liga
TTITLE4=Nyree Klip - Full Moon of Love
TTITLE5=Nyree Klip - 1800 Used to Be
TTITLE6=Tamika Kellehear - I'll be Gone
TTITLE7=Michael King - Rodeo Dreams
TTITLE8=Laura Downing - He Taught Me to Yodel
TTITLE9=Nathan Walmsley - Working Man Blues
TTITLE10=Luella Widt - Why Hadn't I Heard from You
TTITLE11=Killin' Time  - Mustang Sally
TTITLE12=Killin' Time - Heartache tonight
EXTD=Finalists Talent Searcg Gympie Music Muster 1997
EXTT0=
EXTT1=
EXTT2=
EXTT3=
EXTT4=
EXTT5=
EXTT6=
EXTT7=
EXTT8=
EXTT9=
EXTT10=
EXTT11=
EXTT12=
PLAYORDER=
